# xmcd
#
# Track frame offsets:
#	150
#	21550
#	37165
#	49342
#	60370
#	79047
#	97215
#	119937
#	141767
#	160065
#	170734
#	183442
#	198820
#	215482
#	237595
#	261022
#	278810
#	291425
#	301305
#	323697
#
# Disc length: 4518
#
# Revision: 2
# Processed by: cddbd v1.5.1PL0 Copyright (c) Steve Scherf et al.
# Submitted via: CDex 1.30Release
# Normalized: r1:TDELIM( - )
#
DISCID=3711a414
DTITLE=Various Artist - The Bluesville Years
DYEAR=1998
DGENRE=Blues
TTITLE0=Match Box Blues - JT Adams
TTITLE1=O Mama How I Love You - JT Adams
TTITLE2=Get a Real Young Woman - Robert Curtis Smith
TTITLE3=I'm Going Away - Robert Curtis Smith
TTITLE4=Hottest Brand Goin' - Smokey Babe
TTITLE5=Locomotive Blues - Smokey Babe
TTITLE6=Free Again - Robert Pete Williams
TTITLE7=Rolling Stone - Robert Pete Williams
TTITLE8=Rock Me, Mamma - Wade Walton
TTITLE9=Blues, Stay Away From Me - Wade Walton
TTITLE10=Jockey Ride Blues - Big Joe Williams
TTITLE11=Coal and Iceman Blues - Big Joe Williams
TTITLE12=I Got to Find My Baby - Pete Franklin
TTITLE13=Black Cat - Pete Franklin
TTITLE14=Blues Before Sunrise - Scrapper Blackwell
TTITLE15=A Blues - Scrapper Blackwell
TTITLE16=Broke Down Engine Blues - Blind Willie McTell
TTITLE17=Don't Forget It - Blind Willie McTell
TTITLE18=Dark and Stormy Night - Tampa Red
TTITLE19=You Better Let My Gal Alone - Tampa Red
EXTD=YEAR: 1998 ID3G:   0
EXTT0=
EXTT1=
EXTT2=
EXTT3=
EXTT4=
EXTT5=
EXTT6=
EXTT7=
EXTT8=
EXTT9=
EXTT10=
EXTT11=
EXTT12=
EXTT13=
EXTT14=
EXTT15=
EXTT16=
EXTT17=
EXTT18=
EXTT19=
PLAYORDER=
